<svg width="19" height="18" viewBox="0 0 19 18" fill="none" xmlns="http://www.w3.org/2000/svg">
<path d="M13.0127 11H12.2227L11.9427 10.73C12.9227 9.59 13.5127 8.11 13.5127 6.5C13.5127 2.91 10.6027 0 7.0127 0C3.4227 0 0.512695 2.91 0.512695 6.5C0.512695 10.09 3.4227 13 7.0127 13C8.62269 13 10.1027 12.41 11.2427 11.43L11.5127 11.71V12.5L16.5127 17.49L18.0027 16L13.0127 11ZM7.0127 11C4.5227 11 2.5127 8.99 2.5127 6.5C2.5127 4.01 4.5227 2 7.0127 2C9.5027 2 11.5127 4.01 11.5127 6.5C11.5127 8.99 9.5027 11 7.0127 11Z" fill="#9692B0"/>
</svg>
