<svg width="18" height="18" viewBox="0 0 18 18" fill="none" xmlns="http://www.w3.org/2000/svg">
<path d="M12.958 9.83335C13.583 9.83335 14.133 9.49169 14.4163 8.97502L17.3997 3.56669C17.708 3.01669 17.308 2.33335 16.6747 2.33335H4.34134L3.55801 0.666687H0.833008V2.33335H2.49967L5.49967 8.65835L4.37467 10.6917C3.76634 11.8084 4.56634 13.1667 5.83301 13.1667H15.833V11.5H5.83301L6.74967 9.83335H12.958ZM5.13301 4.00002H15.258L12.958 8.16669H7.10801L5.13301 4.00002ZM5.83301 14C4.91634 14 4.17467 14.75 4.17467 15.6667C4.17467 16.5834 4.91634 17.3334 5.83301 17.3334C6.74967 17.3334 7.49967 16.5834 7.49967 15.6667C7.49967 14.75 6.74967 14 5.83301 14ZM14.1663 14C13.2497 14 12.508 14.75 12.508 15.6667C12.508 16.5834 13.2497 17.3334 14.1663 17.3334C15.083 17.3334 15.833 16.5834 15.833 15.6667C15.833 14.75 15.083 14 14.1663 14Z" fill="white"/>
</svg>
